<svg xmlns="http://www.w3.org/2000/svg" viewBox="0 0 1080 2340" width="1080" height="2340">
<defs><linearGradient id="msky" x1="0" y1="0" x2="0" y2="1"><stop offset="0%" stop-color="#20224e"/><stop offset="60%" stop-color="#171a3a"/><stop offset="100%" stop-color="#0d0f24"/></linearGradient>
<radialGradient id="moon" cx="72%" cy="20%" r="26%"><stop offset="0%" stop-color="#cfd6ff"/><stop offset="30%" stop-color="#aeb7f5" stop-opacity=".5"/><stop offset="100%" stop-color="#aeb7f5" stop-opacity="0"/></radialGradient></defs>
<rect width="1080" height="2340" fill="url(#msky)"/>
<circle cx="527" cy="501" r="1.120" fill="#dfe4ff" opacity="0.427"/>
<circle cx="982" cy="1541" r="1.508" fill="#dfe4ff" opacity="0.479"/>
<circle cx="680" cy="1667" r="0.578" fill="#dfe4ff" opacity="0.328"/>
<circle cx="422" cy="563" r="1.429" fill="#dfe4ff" opacity="0.868"/>
<circle cx="501" cy="1612" r="1.401" fill="#dfe4ff" opacity="0.573"/>
<circle cx="735" cy="409" r="1.947" fill="#dfe4ff" opacity="0.431"/>
<circle cx="1025" cy="1473" r="0.633" fill="#dfe4ff" opacity="0.421"/>
<circle cx="355" cy="1171" r="1.827" fill="#dfe4ff" opacity="0.788"/>
<circle cx="293" cy="423" r="1.816" fill="#dfe4ff" opacity="0.772"/>
<circle cx="128" cy="366" r="0.915" fill="#dfe4ff" opacity="0.343"/>
<circle cx="481" cy="723" r="1.505" fill="#dfe4ff" opacity="0.384"/>
<circle cx="382" cy="1255" r="1.356" fill="#dfe4ff" opacity="0.603"/>
<circle cx="320" cy="759" r="1.989" fill="#dfe4ff" opacity="0.392"/>
<circle cx="575" cy="721" r="1.415" fill="#dfe4ff" opacity="0.512"/>
<circle cx="881" cy="1358" r="0.611" fill="#dfe4ff" opacity="0.349"/>
<circle cx="419" cy="531" r="1.089" fill="#dfe4ff" opacity="0.492"/>
<circle cx="966" cy="95" r="0.483" fill="#dfe4ff" opacity="0.480"/>
<circle cx="328" cy="1540" r="1.934" fill="#dfe4ff" opacity="0.799"/>
<circle cx="457" cy="549" r="1.005" fill="#dfe4ff" opacity="0.337"/>
<circle cx="119" cy="1052" r="1.079" fill="#dfe4ff" opacity="0.497"/>
<circle cx="837" cy="1142" r="1.790" fill="#dfe4ff" opacity="0.882"/>
<circle cx="273" cy="74" r="1.845" fill="#dfe4ff" opacity="0.536"/>
<circle cx="717" cy="598" r="0.774" fill="#dfe4ff" opacity="0.869"/>
<circle cx="358" cy="262" r="0.966" fill="#dfe4ff" opacity="0.445"/>
<circle cx="400" cy="1527" r="0.941" fill="#dfe4ff" opacity="0.850"/>
<circle cx="24" cy="647" r="0.404" fill="#dfe4ff" opacity="0.542"/>
<circle cx="378" cy="303" r="1.638" fill="#dfe4ff" opacity="0.782"/>
<circle cx="397" cy="893" r="0.573" fill="#dfe4ff" opacity="0.551"/>
<circle cx="229" cy="324" r="1.698" fill="#dfe4ff" opacity="0.358"/>
<circle cx="481" cy="976" r="0.552" fill="#dfe4ff" opacity="0.935"/>
<circle cx="84" cy="1483" r="1.553" fill="#dfe4ff" opacity="0.639"/>
<circle cx="447" cy="647" r="0.509" fill="#dfe4ff" opacity="0.638"/>
<circle cx="332" cy="1207" r="1.159" fill="#dfe4ff" opacity="0.711"/>
<circle cx="999" cy="378" r="1.514" fill="#dfe4ff" opacity="0.344"/>
<circle cx="656" cy="351" r="1.710" fill="#dfe4ff" opacity="0.542"/>
<circle cx="997" cy="405" r="1.165" fill="#dfe4ff" opacity="0.744"/>
<circle cx="553" cy="452" r="1.558" fill="#dfe4ff" opacity="0.961"/>
<circle cx="873" cy="1248" r="0.999" fill="#dfe4ff" opacity="0.721"/>
<circle cx="255" cy="774" r="0.732" fill="#dfe4ff" opacity="0.745"/>
<circle cx="1058" cy="652" r="1.718" fill="#dfe4ff" opacity="0.339"/>
<circle cx="980" cy="200" r="1.259" fill="#dfe4ff" opacity="0.619"/>
<circle cx="819" cy="423" r="0.602" fill="#dfe4ff" opacity="0.955"/>
<circle cx="186" cy="589" r="1.679" fill="#dfe4ff" opacity="0.867"/>
<circle cx="726" cy="1263" r="0.730" fill="#dfe4ff" opacity="0.334"/>
<circle cx="188" cy="1511" r="1.765" fill="#dfe4ff" opacity="0.963"/>
<circle cx="143" cy="764" r="1.600" fill="#dfe4ff" opacity="0.984"/>
<circle cx="985" cy="1499" r="1.443" fill="#dfe4ff" opacity="0.503"/>
<circle cx="509" cy="1296" r="1.546" fill="#dfe4ff" opacity="0.896"/>
<circle cx="1044" cy="782" r="1.910" fill="#dfe4ff" opacity="0.758"/>
<circle cx="387" cy="841" r="0.757" fill="#dfe4ff" opacity="0.305"/>
<circle cx="661" cy="437" r="0.952" fill="#dfe4ff" opacity="0.537"/>
<circle cx="649" cy="461" r="1.696" fill="#dfe4ff" opacity="0.657"/>
<circle cx="314" cy="1329" r="1.664" fill="#dfe4ff" opacity="0.361"/>
<circle cx="329" cy="1453" r="0.519" fill="#dfe4ff" opacity="0.690"/>
<circle cx="507" cy="1155" r="0.968" fill="#dfe4ff" opacity="0.955"/>
<circle cx="454" cy="599" r="1.494" fill="#dfe4ff" opacity="0.831"/>
<circle cx="944" cy="1386" r="1.131" fill="#dfe4ff" opacity="0.941"/>
<circle cx="713" cy="374" r="1.618" fill="#dfe4ff" opacity="0.499"/>
<circle cx="98" cy="527" r="1.086" fill="#dfe4ff" opacity="0.758"/>
<circle cx="854" cy="413" r="1.438" fill="#dfe4ff" opacity="0.925"/>
<circle cx="591" cy="630" r="1.150" fill="#dfe4ff" opacity="0.883"/>
<circle cx="328" cy="557" r="0.469" fill="#dfe4ff" opacity="0.887"/>
<circle cx="940" cy="137" r="1.939" fill="#dfe4ff" opacity="0.672"/>
<circle cx="493" cy="317" r="1.212" fill="#dfe4ff" opacity="0.749"/>
<circle cx="663" cy="1658" r="0.693" fill="#dfe4ff" opacity="0.608"/>
<circle cx="742" cy="1504" r="0.973" fill="#dfe4ff" opacity="0.822"/>
<circle cx="394" cy="1015" r="0.990" fill="#dfe4ff" opacity="0.965"/>
<circle cx="449" cy="534" r="1.882" fill="#dfe4ff" opacity="0.331"/>
<circle cx="243" cy="1349" r="0.667" fill="#dfe4ff" opacity="0.382"/>
<circle cx="219" cy="740" r="0.713" fill="#dfe4ff" opacity="0.497"/>
<circle cx="720" cy="52" r="1.139" fill="#dfe4ff" opacity="0.654"/>
<circle cx="323" cy="890" r="1.701" fill="#dfe4ff" opacity="0.530"/>
<circle cx="822" cy="766" r="1.315" fill="#dfe4ff" opacity="0.929"/>
<circle cx="606" cy="340" r="1.160" fill="#dfe4ff" opacity="0.538"/>
<circle cx="846" cy="1586" r="1.720" fill="#dfe4ff" opacity="0.922"/>
<circle cx="803" cy="605" r="1.505" fill="#dfe4ff" opacity="0.846"/>
<circle cx="213" cy="1576" r="1.212" fill="#dfe4ff" opacity="0.543"/>
<circle cx="181" cy="1666" r="1.867" fill="#dfe4ff" opacity="0.523"/>
<circle cx="7" cy="345" r="0.701" fill="#dfe4ff" opacity="0.829"/>
<circle cx="827" cy="1444" r="0.514" fill="#dfe4ff" opacity="0.733"/>
<circle cx="526" cy="778" r="1.068" fill="#dfe4ff" opacity="0.600"/>
<circle cx="535" cy="101" r="1.070" fill="#dfe4ff" opacity="0.988"/>
<circle cx="315" cy="1449" r="1.684" fill="#dfe4ff" opacity="0.721"/>
<circle cx="149" cy="777" r="1.732" fill="#dfe4ff" opacity="0.916"/>
<circle cx="1006" cy="612" r="1.128" fill="#dfe4ff" opacity="0.575"/>
<circle cx="497" cy="1684" r="1.092" fill="#dfe4ff" opacity="0.544"/>
<circle cx="681" cy="1674" r="1.706" fill="#dfe4ff" opacity="0.750"/>
<circle cx="825" cy="1470" r="1.350" fill="#dfe4ff" opacity="0.495"/>
<circle cx="601" cy="1601" r="1.771" fill="#dfe4ff" opacity="0.746"/>
<circle cx="861" cy="1002" r="0.940" fill="#dfe4ff" opacity="0.690"/>
<circle cx="461" cy="1026" r="1.439" fill="#dfe4ff" opacity="0.781"/>
<circle cx="57" cy="1570" r="0.541" fill="#dfe4ff" opacity="0.368"/>
<circle cx="528" cy="657" r="0.911" fill="#dfe4ff" opacity="0.717"/>
<circle cx="468" cy="1194" r="1.703" fill="#dfe4ff" opacity="0.820"/>
<circle cx="943" cy="853" r="0.988" fill="#dfe4ff" opacity="0.303"/>
<circle cx="320" cy="831" r="1.262" fill="#dfe4ff" opacity="0.332"/>
<circle cx="354" cy="983" r="0.995" fill="#dfe4ff" opacity="0.721"/>
<circle cx="936" cy="261" r="0.758" fill="#dfe4ff" opacity="0.942"/>
<circle cx="347" cy="263" r="0.493" fill="#dfe4ff" opacity="0.449"/>
<circle cx="42" cy="503" r="0.456" fill="#dfe4ff" opacity="0.406"/>
<circle cx="566" cy="65" r="1.605" fill="#dfe4ff" opacity="0.838"/>
<circle cx="579" cy="966" r="1.964" fill="#dfe4ff" opacity="0.886"/>
<circle cx="716" cy="963" r="0.729" fill="#dfe4ff" opacity="0.399"/>
<circle cx="496" cy="1440" r="1.850" fill="#dfe4ff" opacity="0.737"/>
<circle cx="813" cy="1254" r="1.658" fill="#dfe4ff" opacity="0.905"/>
<circle cx="216" cy="514" r="1.865" fill="#dfe4ff" opacity="0.919"/>
<circle cx="756" cy="317" r="0.503" fill="#dfe4ff" opacity="0.801"/>
<circle cx="799" cy="516" r="0.555" fill="#dfe4ff" opacity="0.814"/>
<circle cx="310" cy="84" r="1.606" fill="#dfe4ff" opacity="0.432"/>
<circle cx="335" cy="452" r="1.488" fill="#dfe4ff" opacity="0.956"/>
<circle cx="564" cy="1239" r="0.460" fill="#dfe4ff" opacity="0.878"/>
<circle cx="479" cy="527" r="1.266" fill="#dfe4ff" opacity="0.781"/>
<circle cx="406" cy="900" r="0.832" fill="#dfe4ff" opacity="0.609"/>
<circle cx="417" cy="1401" r="0.547" fill="#dfe4ff" opacity="0.475"/>
<circle cx="952" cy="190" r="0.477" fill="#dfe4ff" opacity="0.442"/>
<circle cx="963" cy="1551" r="1.263" fill="#dfe4ff" opacity="0.650"/>
<circle cx="668" cy="1492" r="1.458" fill="#dfe4ff" opacity="0.723"/>
<circle cx="422" cy="1161" r="1.239" fill="#dfe4ff" opacity="0.525"/>
<circle cx="613" cy="444" r="1.865" fill="#dfe4ff" opacity="0.508"/>
<circle cx="576" cy="743" r="0.611" fill="#dfe4ff" opacity="0.914"/>
<circle cx="365" cy="1303" r="0.936" fill="#dfe4ff" opacity="0.869"/>
<circle cx="114" cy="1242" r="0.845" fill="#dfe4ff" opacity="0.842"/>
<circle cx="842" cy="89" r="1.571" fill="#dfe4ff" opacity="0.403"/>
<circle cx="351" cy="546" r="1.157" fill="#dfe4ff" opacity="0.355"/>
<circle cx="1034" cy="1221" r="0.656" fill="#dfe4ff" opacity="0.462"/>
<circle cx="547" cy="1597" r="1.930" fill="#dfe4ff" opacity="0.461"/>
<circle cx="548" cy="235" r="0.776" fill="#dfe4ff" opacity="0.484"/>
<circle cx="113" cy="56" r="0.735" fill="#dfe4ff" opacity="0.864"/>
<circle cx="402" cy="0" r="1.740" fill="#dfe4ff" opacity="0.951"/>
<circle cx="147" cy="412" r="1.746" fill="#dfe4ff" opacity="0.428"/>
<circle cx="973" cy="1437" r="0.694" fill="#dfe4ff" opacity="0.645"/>
<circle cx="1043" cy="1549" r="1.762" fill="#dfe4ff" opacity="0.345"/>
<circle cx="357" cy="785" r="0.845" fill="#dfe4ff" opacity="0.829"/>
<circle cx="520" cy="635" r="0.826" fill="#dfe4ff" opacity="0.914"/>
<circle cx="698" cy="113" r="1.576" fill="#dfe4ff" opacity="0.932"/>
<circle cx="682" cy="167" r="0.641" fill="#dfe4ff" opacity="0.336"/>
<circle cx="869" cy="795" r="1.964" fill="#dfe4ff" opacity="0.449"/>
<circle cx="374" cy="1339" r="1.990" fill="#dfe4ff" opacity="0.423"/>
<circle cx="372" cy="127" r="1.703" fill="#dfe4ff" opacity="0.756"/>
<circle cx="898" cy="551" r="1.156" fill="#dfe4ff" opacity="0.315"/>
<circle cx="778" cy="470" r="520" fill="url(#moon)"/>
<circle cx="778" cy="470" r="120" fill="#eef1ff"/>
</svg>